<?xml version="1.0" encoding="UTF-8" standalone="no"?>
<!-- Created with Inkscape (http://www.inkscape.org/) -->

<svg
   width="512"
   height="512"
   viewBox="0 0 512 512"
   version="1.1"
   id="svg5"
   xml:space="preserve"
   xmlns="http://www.w3.org/2000/svg"
   xmlns:svg="http://www.w3.org/2000/svg"><defs
     id="defs2" /><rect
     style="display:inline;opacity:1;fill:#02525b;fill-opacity:1;stroke-width:0.855514"
     id="rect42654"
     width="512"
     height="512"
     x="0"
     y="0" /><g
     id="g42600"
     style="display:inline"
     transform="matrix(3.7371529,0,0,3.7371529,-116.30621,-263.51512)"><path
       id="path42586"
       style="display:inline;opacity:1;fill:#e0efeb;fill-opacity:1;stroke-width:0.264583"
       d="m 111.18856,113.28404 -30.390908,10.58437 c 0,0 -1.257621,16.87246 5.973279,22.00744 7.230901,5.135 5.659086,14.56655 5.659086,14.56655 0,0 1.781239,2.6198 5.763473,2.93419 3.98223,0.31438 5.13509,-0.7338 5.13509,-0.7338 0,0 4.19188,-3.77255 4.08709,-7.96438 -0.1048,-4.19182 1.67696,-2.0959 5.76398,-5.03018 4.08704,-2.93428 7.75457,-12.15636 7.75457,-12.15636 0,0 4.71601,-1.46684 5.23999,-5.23948 0.52398,-3.77264 -1.2578,-5.76399 -1.2578,-5.76399 z m 8.48837,66.7551 0.4191,9.95546 12.15636,-0.41909 v -8.90747 z m -52.293446,0.31419 0.314709,9.32708 14.147457,-0.1049 -0.209806,-9.22218 z" /><path
       id="path42588"
       style="display:inline;opacity:1;fill:#b2c9c0;fill-opacity:1;stroke-width:0.264583"
       d="m 112.48667,109.4481 -6.07663,7.11378 -8.225335,4.22403 0.148311,-5.78001 -9.040275,4.96507 -8.595858,1.55598 -0.296623,9.48521 -2.22312,-2.59364 -1.852083,-3.03806 -2.741952,-0.22272 -3.038057,1.63039 -1.408183,2.96416 1.8526,5.48338 2.667538,2.44533 3.927409,-0.0739 0.592728,1.77819 3.186886,5.70611 3.704683,4.00131 3.33468,2.14922 2.297018,3.92741 c 1.135163,3.21767 1.698098,4.87985 2.475732,4.663 0.310801,0.17393 1.850327,-0.54126 3.724923,-1.08286 1.477645,-0.42693 3.222598,-0.87452 3.877278,-0.99477 2.1224,-0.38975 4.49792,-1.78116 4.49792,-2.63446 0,-0.21018 0.31692,-0.85031 0.56896,-1.15962 0.48863,-0.45798 1.00118,-0.77393 1.60249,-1.01441 l 3.63078,-1.7787 1.9079,-1.90738 c -0.89117,0.54152 -1.85379,1.06665 -2.9807,1.58802 -2.21625,0.62804 -6.62747,0.8136 -7.737,0.85317 -0.75362,-0.0123 -2.019,-0.17919 -3.119186,-0.41237 -1.333427,-0.28263 -2.620159,-0.73195 -3.288172,-1.10123 -3.498491,-1.20855 -6.426165,-3.66688 -9.457304,-7.50807 -1.676726,-3.14384 -2.855601,-5.92116 -3.196187,-9.74617 -0.0524,-3.74645 0.183451,-7.91218 0.183451,-7.91218 0.541066,-0.0591 1.265877,-0.0994 1.864486,-0.14366 1.535234,-0.13131 3.823963,-0.78497 6.968567,-1.99006 l 1.368392,-0.524 -0.0801,0.43253 c -0.04402,0.23788 -0.165682,0.94759 -0.270267,1.57717 l -0.19017,1.14463 1.283643,-0.17105 c 6.877537,-0.91696 13.765567,-4.30673 16.348877,-8.0455 l 0.77824,-1.12655 c 0.60124,1.69856 1.52248,2.8983 2.6293,4.12895 1.14597,1.32738 4.03357,3.56869 5.39915,4.19096 l 1.63195,0.86609 0.2961,-0.13229 0.0336,-2.1456 -2.89026,-2.88975 -4.00131,-5.5578 z" /><path
       style="display:inline;opacity:1;fill:#9a8b39;fill-opacity:1;stroke-width:0.264583"
       d="m 71.208722,115.22294 3.301066,-18.286857 14.619009,-7.178511 22.111903,1.571937 2.35791,4.139433 10.68917,4.19183 4.7682,14.095028 -2.14831,9.69361 -7.65009,-2.72469 -6.96892,-12.57549 -10.06039,10.42718 -4.820607,-4.76821 -10.322383,5.55417 z"
       id="path42590" /><path
       id="path42592"
       style="display:inline;opacity:1;fill:#c6ba67;fill-opacity:1;stroke-width:0.264583"
       d="m 101.18039,88.395121 -9.589081,0.209807 -7.649663,1.886189 -6.183085,3.510897 -4.087089,3.982186 -4.453992,6.70657 -1.467093,5.65908 1.571997,-0.15709 c 1.571932,-3.30107 3.143751,-8.22671 7.440372,-11.580175 4.296623,-3.35346 10.951087,-6.759277 16.819646,-6.759277 5.868556,0 11.737588,-0.05235 14.829068,1.309998 1.06104,0.467576 1.5869,0.690379 1.85002,0.794783 l 0.71727,2.663404 2.61999,-0.05219 1.048,1.729094 c 0,0 4.55846,0.261957 6.91637,1.991093 2.3579,1.72912 3.9824,4.1917 4.45399,7.44037 0.47158,3.24866 0.89069,7.3358 0.6811,10.42727 -0.20959,3.09148 0,4.55889 0,4.55889 l 2.358,-6.75927 -0.15762,-10.79418 -4.03438,-6.81198 -6.13037,-2.829285 -5.03019,-0.366902 -0.9958,-4.034379 z m 7.02127,13.256559 c 0,0 -0.57655,1.62473 -1.9389,4.66379 l -2.25309,3.14348 1.4671,1.25781 c 0,0 1.72923,-1.99136 2.61999,-3.5109 0.89076,-1.51954 1.6769,-4.97747 1.6769,-4.97747 z m -8.645463,0.94361 c 0,0 -1.624576,2.25277 -3.510897,4.71547 l -3.248897,3.2489 1.571997,1.31 c 0,0 1.048295,-0.8907 3.353801,-3.45819 2.305509,-2.5675 3.301089,-4.61109 3.301089,-4.61109 z m 22.635823,2.61948 -1.8867,0.41961 c 0,0 0.68154,1.41425 1.36271,3.56257 l 0.73328,3.56309 1.834,-0.41909 c 0,0 -0.26191,-2.30525 -0.68109,-4.03438 -0.41919,-1.72913 -1.3622,-3.0918 -1.3622,-3.0918 z" /><path
       style="display:inline;opacity:1;fill:#716a2a;fill-opacity:1;stroke-width:0.264583"
       d="m 114.59417,95.99292 c 0,0 -0.1048,9.43162 0.15719,11.99912 0.26199,2.56749 1.62434,5.03019 4.19183,8.69804 2.5675,3.66786 8.48846,4.24423 8.48846,4.24423 l -3.82505,8.90764 -2.4103,0.57638 0.15719,-7.80728 -6.13055,-5.50178 -2.67229,-9.8508 -2.82949,6.18295 -5.44938,5.03019 -7.021312,2.77709 1.833928,-7.59769 -7.597693,5.81616 -10.636771,2.04352 -0.47158,9.06483 -3.877445,-4.08703 -1.729129,-1.72913 -4.506219,1.78153 -1.467141,0.68117 -1.886323,-13.51865 c 0,0 2.934282,-6.86413 4.506219,-9.11724 1.571935,-2.25311 4.453819,-5.60657 5.344583,-5.711366 0.890765,-0.104797 -1.152752,2.357906 -1.938721,4.611016 -0.785968,2.25311 -2.095915,10.00799 -2.095915,10.00799 l 5.239787,0.1572 2.357906,-1.30995 3.510658,-0.1048 c 0,0 3.982239,-1.83392 5.711367,-1.93872 1.729132,-0.10479 -2.095912,1.99112 -3.039075,2.6199 -0.943163,0.62877 -2.72469,0.68117 -2.72469,0.68117 l 0.104796,3.98224 c 0,0 4.925401,-0.36679 8.174069,-2.30551 3.248668,-1.93872 5.501778,-4.08703 7.388101,-6.60213 1.88632,-2.5151 2.09592,-2.6199 2.09592,-2.6199 0,0 0.52397,7.4405 -0.1572,9.9556 -0.68117,2.5151 7.91208,-6.18295 9.01244,-8.27886 1.10035,-2.09592 2.14831,-4.40143 2.20071,-11.213152 0.0524,-6.811724 1.99112,-0.523978 1.99112,-0.523978 z"
       id="path42594" /><path
       style="display:inline;opacity:1;fill:#1f6968;fill-opacity:1;stroke-width:0.264583"
       d="m 78.806415,156.77446 c 0,0 9.117232,-3.77264 10.479577,-3.66785 1.362344,0.1048 1.152752,7.33571 4.296626,8.80285 3.143872,1.46714 5.344584,3.03907 9.536412,0.73357 4.19183,-2.30551 4.40142,-9.53642 4.40142,-9.53642 0,0 11.84192,1.99112 16.66253,6.60213 4.8206,4.61102 8.27886,16.24335 8.27886,19.49202 0,3.24867 -1.04795,0.94316 -1.04795,0.94316 l -11.63233,-0.1048 -0.20959,9.8508 -37.831273,-0.31438 0.104796,-9.43162 -14.252226,0.10479 c 0,0 -1.152752,-10.37478 3.248671,-15.71936 4.40142,-5.34458 7.964477,-7.75489 7.964477,-7.75489 z"
       id="path42596" /><path
       id="path42598"
       style="display:inline;fill:#000000;stroke-width:0.264583"
       d="m 97.083997,87.077372 c -20.168084,0.129506 -35.63919,17.542558 -29.660722,38.655008 0.370798,1.30968 0.789043,3.39328 0.929659,4.63021 0.550252,4.84013 3.371185,8.07819 7.331852,8.41447 l 1.388029,0.11782 1.168404,2.46652 c 1.99377,4.20915 4.576719,7.29195 8.124569,9.6976 1.627999,1.1039 1.666925,1.02663 -0.871265,1.73374 -9.700905,2.70193 -16.340533,9.37818 -18.464506,18.56528 l -0.577742,2.49855 v 4.24832 c -1.5e-5,2.89904 -0.194902,5.70232 -0.36587,5.95261 9.64e-4,0.0866 0.0014,0.17328 0.0021,0.25993 0.02449,0.0397 0.05204,0.11908 0.0801,0.21343 -0.02572,0.3231 -0.0026,0.65486 -0.0026,0.97616 0,0.32173 -0.02612,0.64193 -0.03721,0.96325 -0.0104,0.30197 0.01508,0.60568 0,0.90744 -0.0028,0.0558 -0.0155,0.11111 -0.0186,0.16691 -0.01234,0.22206 -0.0095,0.44515 -0.0047,0.66818 -0.01134,7.5e-4 -0.01949,0.004 -0.03152,0.005 0.01226,0.19754 0.02436,0.39524 0.03721,0.59273 9.58e-4,0.0165 0.0021,0.0331 0.0031,0.0496 -6.59e-4,0.0557 -0.002,0.11131 -0.0041,0.16691 l 0.0155,0.002 c 0.03407,0.54415 0.07521,1.08777 0.109037,1.63194 2.96781,0.0134 16.651714,0.0591 34.785478,0.11421 15.71554,0.0478 26.92914,0.11704 31.70141,0.17466 4.7e-4,-0.0172 0.001,-0.0344 0.002,-0.0517 0.0971,0.0183 0.22118,0.0395 0.26407,0.0181 0.0269,-0.0134 0.0402,-0.0277 0.0744,-0.0367 0.0968,-0.0242 0.12971,0.0166 0.12971,-0.0744 0,-0.11166 -2.3e-4,-0.20494 0.0181,-0.31471 0.0114,-0.0686 0,-0.15331 0,-0.22221 0,-0.25753 -0.0171,-0.52144 0,-0.77825 0.003,-0.0497 0.0156,-0.0986 0.0186,-0.14831 0.007,-0.10477 -0.006,-0.20991 0,-0.31471 0.0222,-0.37674 0.0535,-0.75323 0.0744,-1.13016 0.003,-0.0555 -0.003,-0.1109 0,-0.1664 0.009,-0.16722 0.0463,-0.33298 0.0553,-0.50023 0.0133,-0.25311 0.0239,-0.50648 0.0372,-0.75964 0.009,-0.17496 -0.01,-0.34496 -0.0186,-0.51883 -0.003,-0.0617 0.006,-0.1235 0,-0.185 -0.007,-0.0687 -0.0312,-0.13543 -0.0372,-0.20413 -0.006,-0.0676 0.003,-0.1358 0,-0.2036 -0.01,-0.20331 -0.0237,-0.40652 -0.0377,-0.60927 0.006,-0.009 0.0103,-0.0204 0.016,-0.0294 -0.0353,-0.48202 -0.0545,-0.96501 -0.0506,-1.44901 0.006,-0.26301 0.016,-0.5259 0.0341,-0.78806 -0.0515,-0.90592 -0.0812,-2.17153 -0.10335,-3.96565 -0.16108,-13.04049 -6.50958,-21.23616 -19.95692,-25.76432 -0.12061,-0.0406 -0.21406,-0.10305 -0.27285,-0.1726 -0.2903,-0.0563 -0.58133,-0.10869 -0.8723,-0.16123 -0.15806,0.0103 -0.34453,0.006 -0.5457,-0.0248 l -0.8475,-0.12764 1.64125,-1.08469 c 4.03717,-2.66774 8.9178,-9.28699 8.9178,-12.09487 0,-0.40229 0.33301,-0.69919 1.22783,-1.09502 3.75936,-1.66323 6.01106,-7.11865 4.30465,-10.4283 l -0.42013,-0.81442 0.57619,-1.30638 c 2.04875,-4.6416 2.64073,-7.72157 2.64273,-13.73353 l 0.001,-5.02709 -0.59738,-2.06344 c -1.88887,-6.526215 -6.16203,-9.828867 -12.99818,-10.046928 l -1.89859,-0.06046 -0.15193,-0.661459 c -0.0837,-0.3638 -0.29491,-1.256839 -0.46922,-1.984375 l -0.31729,-1.322916 -1.5689,-0.626836 c -4.94887,-1.977366 -9.854,-2.867954 -14.508152,-2.838069 z m -0.03256,2.436027 c 5.564783,-0.0025 8.727983,0.417194 12.434383,1.649512 l 2.11615,0.703316 0.35605,1.719792 c 0.19587,0.945818 0.40346,1.973267 0.46096,2.283065 l 0.10438,0.563273 3.24425,0.122473 3.24425,0.122473 1.77612,0.727604 c 4.86961,1.994881 6.91314,6.226723 6.90914,14.305073 l -0.002,4.23333 -0.5917,2.77813 c -0.61672,2.89579 -1.79441,5.77937 -3.59358,8.79791 -1.30731,2.19385 -1.45614,2.20747 -1.45314,0.13177 0.004,-2.91674 0.28648,-4.48742 0.83251,-4.63021 0.746,-0.19509 0.58837,-0.53335 -0.51056,-1.09399 -5.21786,-2.66227 -8.79068,-8.58589 -8.79068,-14.5774 0,-0.91522 -0.11729,-1.31634 -0.41858,-1.43195 -0.86779,-0.33301 -1.13944,-0.12222 -1.57975,1.22834 -1.05482,3.22979 -2.2995,5.28897 -4.61625,7.63726 l -2.24896,2.27945 -2.84221,1.40508 c -3.331896,1.64744 -3.185995,1.68687 -2.57762,-0.69504 0.506601,-1.98352 1.18065,-6.95013 0.97152,-7.15926 -0.068,-0.068 -0.695338,0.60431 -1.394233,1.49397 -4.319067,5.49781 -10.32841,8.20157 -18.225244,8.20157 -3.26893,0 -3.182706,0.0745 -2.23914,-1.942 0.42104,-0.89989 0.984168,-2.52765 1.251603,-3.61736 l 0.486275,-1.98127 2.013831,-0.16536 c 2.419781,-0.19852 3.37292,-0.4159 3.37292,-0.7705 0,-0.16157 -0.283271,-0.18512 -0.727604,-0.0615 -0.400114,0.11187 -2.305294,0.2036 -4.233333,0.2036 -2.158276,0 -3.507247,0.10168 -3.509347,0.26458 -0.002,0.14552 -0.07555,0.53248 -0.163297,0.8599 l -0.15968,0.59531 h 0.824756 c 1.159106,0 0.04499,3.42794 -2.254643,6.93498 -0.613739,0.93626 -0.554724,0.97297 2.121317,1.3379 l 2.280998,0.31109 -0.0155,3.44734 -0.01602,3.44682 -0.314709,-0.49506 c -0.173342,-0.27239 -0.747485,-1.17685 -1.275374,-2.0097 -2.118994,-3.34223 -4.94618,-3.75152 -7.704956,-1.11414 -0.545703,0.52165 -0.992188,0.86347 -0.992188,0.75964 0,-0.10383 -0.24579,-1.2889 -0.545703,-2.63343 -3.602667,-16.15075 4.990812,-30.241055 20.483504,-33.585031 l 2.684074,-0.578776 z m 14.915373,22.043611 c 0.17683,0.0114 0.31031,0.4123 0.56482,1.21388 1.11102,3.49926 3.52389,7.02363 6.0787,8.87853 l 1.61954,1.17564 -0.0801,7.01146 -0.0796,7.01146 -0.75706,2.11666 c -2.51208,7.02452 -8.411,12.28338 -15.55357,13.86686 -1.42325,0.31557 -5.461802,0.57022 -6.178956,0.38964 -0.290976,-0.0733 -1.541266,-0.37183 -2.778125,-0.66353 -1.26069,-0.29732 -3.454484,-1.12053 -4.991943,-1.87378 l -2.742469,-1.34411 -2.309936,-2.27686 c -3.325132,-3.2777 -4.820649,-5.77627 -5.840987,-9.75703 -0.376301,-1.46824 -0.599793,-1.63212 -1.329118,-0.97203 -0.554157,0.50157 -2.833008,0.56966 -3.724321,0.1111 -4.472007,-2.30074 -4.549234,-10.00956 -0.105419,-10.51047 l 1.213362,-0.13694 0.522966,0.47336 c 0.287653,0.26032 0.957921,1.25119 1.489314,2.20141 1.012672,1.8103 2.89021,3.85028 3.752226,4.07572 l 0.506946,0.13229 0.162781,-1.35547 c 0.08959,-0.74499 0.163548,-3.09554 0.164848,-5.2219 l 0.0026,-3.86592 2.050521,-0.18345 c 5.085206,-0.45459 9.314498,-2.04616 12.578561,-4.73408 1.696756,-1.39725 1.762254,-1.18576 0.660941,2.13476 -0.518385,1.56307 -0.914983,2.87325 -0.881083,2.91145 0.20937,0.23576 5.183001,-1.48158 7.286891,-2.51613 l 2.51354,-1.2361 2.27996,-2.25981 c 1.25375,-1.24283 2.63922,-2.89522 3.07837,-3.67213 0.42847,-0.75758 0.64896,-1.13588 0.82579,-1.12448 z M 91.696212,125.9644 c -1.67845,-1e-5 -3.039104,1.36065 -3.039091,3.0391 -7e-6,1.67845 1.360645,3.0391 3.039091,3.03909 1.678446,1e-5 3.039098,-1.36064 3.039091,-3.03909 1.3e-5,-1.67845 -1.360641,-3.03911 -3.039091,-3.0391 z m 20.854538,0 c -1.73641,-6e-5 -3.14406,1.40759 -3.14399,3.144 -6e-5,1.7364 1.40759,3.14405 3.14399,3.14399 1.73641,7e-5 3.14406,-1.40758 3.144,-3.14399 7e-5,-1.73641 -1.40759,-3.14407 -3.144,-3.144 z m -38.600742,2.11357 c -0.06634,-8e-4 -0.131904,0.001 -0.19637,0.007 -0.802207,0.0665 -1.440739,0.61078 -1.440739,1.67173 v 0.71107 l 0.539502,-0.57878 c 0.632096,-0.67855 1.630764,-0.75205 2.219502,-0.1633 0.540714,0.54077 0.52484,0.72641 -0.113171,1.3038 -0.328195,0.29706 -0.529167,0.81524 -0.529167,1.36426 0,0.53226 0.210995,1.09562 0.529167,1.41386 0.930416,0.93048 1.455581,0.61206 0.88315,-0.53536 l -0.382922,-0.76792 0.295072,-0.55138 c 0.205285,-0.38378 0.45135,-0.5024 0.80822,-0.38913 0.624095,0.1981 0.640745,-0.0716 0.0894,-1.44952 -0.529064,-1.32243 -1.706656,-2.02399 -2.701644,-2.03605 z m 50.991202,0.76223 c 0.0172,-7.5e-4 0.0339,3.6e-4 0.0496,0.004 0.25206,0.052 0.32708,0.6162 0.32608,1.7141 -0.001,1.91914 -0.72829,3.62264 -2.03657,4.77129 -1.14981,1.01012 -1.54755,1.08634 -1.37718,0.26458 0.0679,-0.32685 0.20088,-1.30178 0.29508,-2.16524 l 0.17104,-1.56993 1.23197,-1.65468 c 0.66349,-0.89232 1.08248,-1.35255 1.33997,-1.36374 z m -17.08578,7.91063 c -0.35158,0.0297 -0.81048,0.31883 -1.42937,0.87798 -2.41343,2.18046 -6.12651,2.10832 -9.039756,-0.17518 -1.065981,-0.83554 -2.054655,-0.82119 -2.054655,0.0284 0,0.84703 2.366683,2.59904 4.217313,3.12229 2.775418,0.78482 6.316618,-0.0535 8.271328,-1.95802 0.58217,-0.58495 1.1166,-0.69793 0.7183,-1.44177 -0.40248,-0.34708 -0.45888,-0.43063 -0.68316,-0.45372 z m 9.1457,16.05173 c -0.003,3.4e-4 -0.006,9.4e-4 -0.009,0.001 0.002,8.5e-4 0.004,0.002 0.006,0.003 9.6e-4,-10e-4 0.002,-0.002 0.003,-0.004 z m -25.263577,1.10846 c 0.08141,0 1.293829,0.29766 2.693892,0.66146 3.237383,0.8412 6.743195,0.88935 9.631455,0.13229 1.09134,-0.28605 2.01108,-0.52252 2.04328,-0.52452 0.0323,-0.002 0.0323,0.94255 0,2.10013 -0.008,0.28672 -0.0193,0.54862 -0.0336,0.77773 -0.0115,0.0228 -0.0226,0.0459 -0.0326,0.0698 -0.0596,0.14299 0.008,0.0129 -0.0522,0.17053 -0.0407,0.10577 -0.11036,0.19843 -0.1571,0.30127 -0.0413,0.0909 -0.0695,0.18505 -0.10025,0.27699 -0.11235,0.073 -0.26647,0.33018 -0.47388,0.79013 -0.70343,1.55949 -2.55041,3.09975 -4.34547,3.62252 l -1.47846,0.43046 -1.5875,-0.26561 c -0.41125,-0.0688 -0.715338,-0.10258 -0.9741,-0.11938 -0.109133,-0.0601 -0.222868,-0.0945 -0.341065,-0.13746 -0.03859,-0.014 -0.08179,-0.0316 -0.117822,-0.0522 -0.02203,-0.0126 -0.05479,-0.0432 -0.07855,-0.0522 -0.03344,-0.0134 -0.07016,-0.0173 -0.104903,-0.0264 -0.187323,-0.0511 -0.36324,-0.10957 -0.536919,-0.19637 -0.0082,-0.004 -0.01708,-0.007 -0.02584,-0.01 -0.159634,-0.15124 -0.422955,-0.35107 -0.74104,-0.54725 -0.973048,-0.60142 -2.208619,-2.23156 -2.70216,-3.56567 -0.337045,-0.91095 -0.707013,-3.83646 -0.485242,-3.83646 z m 16.367997,0.19637 1.48466,0.15813 c 11.20472,1.19348 20.65237,10.90838 21.32273,21.92528 l 0.1881,3.098 -5.18469,-0.0217 -5.1847,-0.0217 v -1.66553 c 0,-2.43392 -0.3181,-2.8723 -1.69809,-2.34249 l -0.41858,0.16071 v 6.65231 6.65282 h -17.89296 c -11.686655,0 -17.927036,-0.0918 -17.990636,-0.26458 -0.05355,-0.14552 -0.127251,-3.10944 -0.164331,-6.58616 l -0.0677,-6.32158 -0.463021,-0.29146 c -0.336752,-0.21239 -0.589289,-0.21524 -0.926041,-0.001 l -0.463021,0.29094 -0.07751,1.89032 -0.07803,1.89033 h -5.843054 -5.843055 l 0.136426,-3.63803 0.136943,-3.63802 0.65319,-1.85208 c 2.989379,-8.47479 11.274059,-15.47243 18.732706,-15.82229 l 1.119312,-0.0527 0.06046,1.32292 c 0.164005,3.60097 2.007448,6.40405 5.316472,8.08374 l 1.79834,0.91209 2.262394,-0.009 c 4.976126,-0.0208 8.620446,-3.50366 8.954486,-8.55711 z M 65.848177,176.1877 c 0.0024,0.0207 0.0048,0.0413 0.0072,0.062 0.0028,0.0215 0.0058,0.0431 0.0088,0.0646 8.97e-4,-0.0329 -0.0039,-0.0745 -0.01602,-0.1266 z m 55.351143,4.55579 c 0.006,3.7e-4 0.0124,0.003 0.0176,0.007 0.0138,0.0127 0.0228,0.0413 0.0253,0.0868 0.0141,0.25123 1.13097,0.33073 4.64881,0.33073 3.51818,0 4.63405,-0.0794 4.64675,-0.33073 0.009,-0.18126 0.14089,-0.0331 0.29197,0.33073 0.24304,0.58524 0.39873,7.05403 0.17518,7.27759 -0.0482,0.0482 -2.37997,0.12698 -5.18108,0.17518 l -5.09271,0.0879 0.0191,-3.57187 c 0.0104,-1.96389 0.12092,-3.80999 0.24598,-4.10104 0.0703,-0.1637 0.13602,-0.26359 0.1819,-0.28732 0.008,-0.004 0.0147,-0.006 0.0212,-0.005 z m -52.458296,0.55914 h 5.820833 5.820833 l 0.07338,3.63802 0.0739,3.63802 h -5.968111 -5.968111 l 0.0739,-3.63802 z" /></g></svg>
